<svg xmlns="http://www.w3.org/2000/svg" width="203" height="68" viewBox="0 0 203 68">
    <g fill="none" fill-rule="evenodd">
        <path fill="#FFF" d="M173.601 37.393c2.04 0 3.963.01 5.885-.023.129 0 .368-.318.364-.484-.036-1.607-.042-3.224-.658-4.749-.36-.894-.902-1.578-1.901-1.709-1.121-.147-2.023.266-2.59 1.263-.962 1.693-1.07 3.575-1.1 5.702zm-.02 4.622c-.058 1.55-.069 2.875.573 4.087.523.99 1.434 1.212 2.444 1.161 1.406-.07 2.58-.775 3.764-1.452.213-.121.44-.215.695-.337l2.208 3.783c-.861.572-1.644 1.202-2.516 1.646-2.506 1.275-5.116 1.454-7.75.455-1.688-.64-2.74-1.976-3.21-3.707a19.449 19.449 0 0 1-.665-3.902c-.213-3.457-.199-6.92.423-10.342.308-1.698.84-3.335 1.879-4.727 1.76-2.363 4.175-2.975 6.909-2.559 3.924.599 5.208 3.533 5.664 6.57.222 1.477.265 2.98.392 4.505l.609.236v4.583h-11.42zM139.521 37.174l.171.02c.035.023.07.067.104.068 1.887.05 3.773.106 5.66.118.14 0 .405-.337.403-.513-.029-1.631-.045-3.273-.687-4.81-.349-.839-.888-1.49-1.834-1.621-1.028-.142-1.938.146-2.486 1.074-.389.656-.714 1.396-.87 2.143-.243 1.154-.316 2.345-.46 3.52m9.69 11.97c-.893.952-1.916 1.595-3.04 2.058-2.351.966-4.74 1.092-7.131.182-1.715-.653-2.81-1.983-3.252-3.747a24.31 24.31 0 0 1-.702-4.619c-.166-3.13-.129-6.267.42-9.37.312-1.77.83-3.475 1.894-4.928 1.743-2.38 4.162-3.012 6.901-2.603 4.001.596 5.262 3.572 5.715 6.6.218 1.456.26 2.94.387 4.471.137.057.327.139.596.251v4.596h-11.412c-.055 1.635-.108 3.091.762 4.359.547.797 1.395.92 2.276.875 1.383-.074 2.543-.761 3.71-1.43.215-.123.44-.228.721-.372l2.155 3.676M72.6 37.396c2.038 0 3.961.01 5.883-.021.13-.003.372-.318.368-.482-.034-1.608-.04-3.226-.656-4.75-.361-.896-.9-1.58-1.9-1.713-1.12-.149-2.025.262-2.591 1.26-.964 1.694-1.071 3.577-1.103 5.706m7.459 8.079l2.127 3.652c-.69.813-1.529 1.348-2.423 1.79-2.522 1.243-5.121 1.448-7.758.45-1.69-.64-2.747-1.973-3.215-3.704a20.09 20.09 0 0 1-.675-4.031c-.202-3.394-.185-6.791.418-10.152.31-1.72.839-3.38 1.888-4.792 1.757-2.368 4.172-2.984 6.907-2.567 3.948.601 5.214 3.545 5.671 6.564.225 1.476.266 2.982.394 4.51l.606.24v4.572l-11.426.14c-.045 1.437-.067 2.784.61 4.009.527.954 1.424 1.16 2.408 1.112 1.406-.067 2.58-.77 3.766-1.449.213-.12.439-.216.702-.344M4.603 37.165c.155.073.212.12.269.122 1.843.043 3.686.09 5.529.095.154 0 .445-.309.442-.472-.024-1.608-.036-3.224-.646-4.751-.367-.922-.918-1.615-1.95-1.736-1.158-.134-2.05.332-2.604 1.362-.897 1.67-1.017 3.509-1.04 5.38m9.588 11.977c-.878.948-1.897 1.588-3.02 2.053-2.346.973-4.73 1.096-7.12.194-1.717-.647-2.79-1.981-3.263-3.737a20.133 20.133 0 0 1-.673-4.034c-.2-3.393-.184-6.793.422-10.152.31-1.72.84-3.38 1.892-4.79 1.762-2.366 4.178-2.97 6.911-2.555 3.912.598 5.2 3.53 5.657 6.578.197 1.306.2 2.644.292 3.968.012.17.033.339.05.512l.661.259v4.587H4.588c-.064 1.679-.123 3.183.827 4.46.551.741 1.396.835 2.252.78 1.38-.088 2.533-.786 3.7-1.45.212-.121.438-.214.69-.333l2.134 3.66M192.392 51.563c-.291.072-.56.177-.837.204-.903.088-1.81.135-2.714.226-.453.045-.624-.14-.664-.61-.3-3.54-.199-7.078.154-10.606.335-3.346.727-6.686 1.102-10.027.158-1.401.325-2.802.523-4.198.029-.199.259-.519.404-.524 1.209-.042 2.42-.024 3.634-.024l.149.732c1.057 0 2.058-.03 3.057.005 3.095.107 4.759 2.289 5.337 5.099.431 2.1.526 4.223.427 6.352-.173 3.686-.414 7.369-.63 11.054-.01.191-.06.38-.117.722l-3.894-.237c.021-.496.024-.9.06-1.3.392-4.354.538-8.717.405-13.086-.025-.826-.253-1.673-.526-2.456-.361-1.041-1.152-1.547-2.225-1.506-.123.004-.247.008-.37.026-2.23.305-2.006.3-2.33 2.238-.7 4.182-1.019 8.4-1.07 12.64-.019 1.498.08 2.997.124 4.496.006.234.001.47.001.78M37.428 51.624c-.571.072-1.053.144-1.537.191-.678.066-1.358.101-2.035.176-.44.05-.635-.11-.676-.591-.302-3.52-.203-7.035.142-10.54.333-3.367.732-6.727 1.11-10.09.158-1.4.322-2.801.526-4.197.03-.208.287-.537.45-.543 1.189-.046 2.38-.025 3.584-.025.074.367.123.612.177.89.73-.06 1.44-.14 2.151-.17 1.728-.073 3.329.287 4.587 1.656.868.948 1.34 2.117 1.613 3.385.452 2.093.544 4.22.443 6.349-.175 3.707-.413 7.412-.63 11.117-.012.21-.068.416-.127.744l-3.829-.242c0-.484-.03-.89.004-1.287.392-4.352.539-8.715.407-13.082-.026-.827-.25-1.673-.52-2.457-.359-1.042-1.142-1.557-2.217-1.52-.061 0-.123 0-.185.008-2.325.281-2.216.226-2.55 2.369-.79 5.05-1.166 10.128-1.011 15.245.024.82.076 1.642.123 2.614M56.431 53c-.202-1.387-.421-2.625-.554-3.873-.392-3.671-.23-7.35-.095-11.03.058-1.602.056-3.208.077-4.812.003-.187-.025-.375-.043-.615h-4.54L51 28.244l4.551-.293v-4.799c.866-.05 1.767-.149 2.669-.146 2.034.008 1.761-.25 1.948 1.853.082.915.076 1.838.113 2.756.001.037.04.072.135.23H66v4.491h-5.515c-.073 3.452-.215 6.754-.194 10.054.022 3.304.207 6.608.325 10.008L56.43 53M122.55 27.83V23h4.48c.087 1.521.175 3.053.267 4.686H133v4.578h-5.587c.134 6.773-.648 13.401.423 20.099l-4.403.637c-.2-1.369-.424-2.61-.557-3.864-.394-3.71-.23-7.43-.096-11.147.06-1.59.057-3.183.077-4.773.002-.207-.027-.414-.043-.646h-4.531L118 28.128l4.55-.298M24.786 51.102L20.382 52c-.21-1.13-.438-2.107-.57-3.096-.762-5.723-.964-11.471-.705-17.238.074-1.64.164-3.281.218-4.922.019-.565.239-.759.788-.743 1.212.032 2.425.01 3.633.01l.187.888c.744-.136 1.465-.33 2.195-.389 1.702-.133 3.41-.206 5.114-.295.536-.028.78.244.756.8-.05 1.155-.081 2.312-.123 3.565-2.867-.067-5.586.354-8.188 1.35-.456 6.427-.248 12.749 1.1 19.172M161.006 22h4.146L166 52.72l-4.314.28a599.702 599.702 0 0 1-.68-31M157.597 51.995c-1.444 0-2.797.016-4.15-.01-.439-.008-.454-.376-.446-.73.087-3.63.192-7.257.246-10.886.063-4.158.077-8.315.116-12.472.003-.28.03-.562.047-.897h4.413c.29 8.34.231 16.637-.226 24.995M158 22.119c-.032.866-.272 1.984-1.296 2.592-1.252.745-2.778-.005-3.423-1.62-.48-1.2-.338-2.434.37-3.216.692-.764 2.389-1.126 3.193-.682.747.414 1.156 1.33 1.156 2.926"/>
        <path fill="#FFC8AF" d="M88.546 2.347c1.162 1.046 2.573 1.926 3.418 3.181.918 1.363 1.31 3.077 2.23 4.54L91.45 1.236c.143-.082.286-.165.43-.246l1.15.622c.025-.342.05-.692.119-1.612l3.654 5.085.2-2.063.537-.143c.31.525.8 1.018.898 1.58.374 2.159.704 4.332.891 6.514.126 1.472.333 2.387 2.211 2.585 1.13.12 2.478 1.147 3.125 2.15a17.7 17.7 0 0 1 2.265 5.333c.563 2.327 1.594 6.751 1.594 6.751l-4.18 2.37s4.449-.808 4.552-.516c.893 2.522 1.046 4.88 1.394 7.07.453 2.853.998 5.695 1.53 8.54.027.15-5.865 1.74-5.865 1.74l6.198-.007s.335 1.864.527 2.983c.038.218-3.294 1.113-3.294 1.113l3.597.62s1.166 8.742 1.001 13.586c-.025.727-.13 1.45-.247 2.709-.732-.817-1.16-1.228-1.508-1.696-1.646-2.226-3.09-4.627-4.934-6.674a48.226 48.226 0 0 1-4.511-5.868 48.2 48.2 0 0 1-.67-1.048c-1.643-2.64-2.974-5.036-4.21-7.9-.088-.203 5.56-2.535 5.56-2.535s-6.136.784-6.218.585c-.666-1.616-1.208-2.888-1.787-4.556a33.34 33.34 0 0 0-.757-1.966 44.578 44.578 0 0 0-.544-1.236 61.303 61.303 0 0 0-1.192-2.438c-.378-.737-.768-1.47-1.158-2.196-.579-1.078-1.058-1.79-1.544-2.893-.09-.206 7.05-2.836 7.05-2.836s-7.574 1.387-7.662 1.155c-.623-1.646-1.063-3.35-1.187-5.163-.147-2.152.545-4.05 2.441-5.204 1.445-.878 1.353-1.831.817-3.17C90.42 9.106 89.233 5.804 88 2.52l.546-.174z"/>
    </g>
</svg>
